<mxfile host="app.diagrams.net" agent="Mozilla/5.0 (Windows NT 10.0; Win64; x64) AppleWebKit/537.36 (KHTML, like Gecko) Chrome/129.0.0.0 Safari/537.36" version="24.7.17">
  <diagram id="bMtO0Qfao9w-q9TFNcec" name="1 oldal">
    <mxGraphModel dx="1969" dy="918" grid="1" gridSize="10" guides="1" tooltips="1" connect="1" arrows="1" fold="1" page="1" pageScale="1" pageWidth="827" pageHeight="1169" math="0" shadow="0">
      <root>
        <mxCell id="0" />
        <mxCell id="1" parent="0" />
        <mxCell id="gWGuc9RzG3EKUyZu4uWM-1" value="Kurzus" style="rounded=0;whiteSpace=wrap;html=1;" vertex="1" parent="1">
          <mxGeometry x="470" y="380" width="180" height="80" as="geometry" />
        </mxCell>
        <mxCell id="gWGuc9RzG3EKUyZu4uWM-2" value="név" style="ellipse;whiteSpace=wrap;html=1;" vertex="1" parent="1">
          <mxGeometry x="430" y="510" width="100" height="30" as="geometry" />
        </mxCell>
        <mxCell id="gWGuc9RzG3EKUyZu4uWM-3" value="Tanuló" style="rounded=0;whiteSpace=wrap;html=1;" vertex="1" parent="1">
          <mxGeometry x="470" y="90" width="180" height="80" as="geometry" />
        </mxCell>
        <mxCell id="gWGuc9RzG3EKUyZu4uWM-4" value="t-k" style="rhombus;whiteSpace=wrap;html=1;" vertex="1" parent="1">
          <mxGeometry x="520" y="230" width="80" height="80" as="geometry" />
        </mxCell>
        <mxCell id="gWGuc9RzG3EKUyZu4uWM-5" value="" style="endArrow=classic;html=1;rounded=0;entryX=0.5;entryY=1;entryDx=0;entryDy=0;" edge="1" parent="1" target="gWGuc9RzG3EKUyZu4uWM-3">
          <mxGeometry width="50" height="50" relative="1" as="geometry">
            <mxPoint x="560" y="230" as="sourcePoint" />
            <mxPoint x="610" y="180" as="targetPoint" />
          </mxGeometry>
        </mxCell>
        <mxCell id="gWGuc9RzG3EKUyZu4uWM-6" value="" style="endArrow=classic;html=1;rounded=0;" edge="1" parent="1">
          <mxGeometry width="50" height="50" relative="1" as="geometry">
            <mxPoint x="559.71" y="310" as="sourcePoint" />
            <mxPoint x="560" y="380" as="targetPoint" />
          </mxGeometry>
        </mxCell>
        <mxCell id="gWGuc9RzG3EKUyZu4uWM-7" value="" style="endArrow=classic;html=1;rounded=0;" edge="1" parent="1">
          <mxGeometry width="50" height="50" relative="1" as="geometry">
            <mxPoint x="559.71" y="310" as="sourcePoint" />
            <mxPoint x="560" y="370" as="targetPoint" />
          </mxGeometry>
        </mxCell>
        <mxCell id="gWGuc9RzG3EKUyZu4uWM-8" value="" style="endArrow=classic;html=1;rounded=0;" edge="1" parent="1">
          <mxGeometry width="50" height="50" relative="1" as="geometry">
            <mxPoint x="560" y="230" as="sourcePoint" />
            <mxPoint x="560" y="180" as="targetPoint" />
          </mxGeometry>
        </mxCell>
        <mxCell id="gWGuc9RzG3EKUyZu4uWM-10" value="" style="endArrow=none;html=1;rounded=0;entryX=0.389;entryY=0.969;entryDx=0;entryDy=0;entryPerimeter=0;" edge="1" parent="1">
          <mxGeometry width="50" height="50" relative="1" as="geometry">
            <mxPoint x="490" y="510" as="sourcePoint" />
            <mxPoint x="500.01999999999975" y="457.52" as="targetPoint" />
          </mxGeometry>
        </mxCell>
        <mxCell id="gWGuc9RzG3EKUyZu4uWM-11" value="" style="endArrow=none;html=1;rounded=0;entryX=0;entryY=0.5;entryDx=0;entryDy=0;exitX=1;exitY=0.5;exitDx=0;exitDy=0;" edge="1" parent="1" target="gWGuc9RzG3EKUyZu4uWM-3" source="gWGuc9RzG3EKUyZu4uWM-14">
          <mxGeometry width="50" height="50" relative="1" as="geometry">
            <mxPoint x="450" y="120" as="sourcePoint" />
            <mxPoint x="500" y="70" as="targetPoint" />
          </mxGeometry>
        </mxCell>
        <mxCell id="gWGuc9RzG3EKUyZu4uWM-12" value="" style="endArrow=none;html=1;rounded=0;exitX=1;exitY=0.365;exitDx=0;exitDy=0;exitPerimeter=0;entryX=0;entryY=0.5;entryDx=0;entryDy=0;" edge="1" parent="1" target="gWGuc9RzG3EKUyZu4uWM-15">
          <mxGeometry width="50" height="50" relative="1" as="geometry">
            <mxPoint x="650" y="124.6" as="sourcePoint" />
            <mxPoint x="680" y="125.4" as="targetPoint" />
          </mxGeometry>
        </mxCell>
        <mxCell id="gWGuc9RzG3EKUyZu4uWM-13" value="&lt;u&gt;kurzuskód&lt;/u&gt;" style="ellipse;whiteSpace=wrap;html=1;" vertex="1" parent="1">
          <mxGeometry x="330" y="410" width="100" height="30" as="geometry" />
        </mxCell>
        <mxCell id="gWGuc9RzG3EKUyZu4uWM-14" value="&lt;u&gt;neptunkód&lt;/u&gt;" style="ellipse;whiteSpace=wrap;html=1;" vertex="1" parent="1">
          <mxGeometry x="340" y="115" width="80" height="30" as="geometry" />
        </mxCell>
        <mxCell id="gWGuc9RzG3EKUyZu4uWM-15" value="név" style="ellipse;whiteSpace=wrap;html=1;" vertex="1" parent="1">
          <mxGeometry x="680" y="110" width="80" height="30" as="geometry" />
        </mxCell>
        <mxCell id="gWGuc9RzG3EKUyZu4uWM-16" value="heti_óraszám" style="ellipse;whiteSpace=wrap;html=1;" vertex="1" parent="1">
          <mxGeometry x="540" y="510" width="100" height="30" as="geometry" />
        </mxCell>
        <mxCell id="gWGuc9RzG3EKUyZu4uWM-17" value="" style="endArrow=none;html=1;rounded=0;entryX=0.815;entryY=1.01;entryDx=0;entryDy=0;entryPerimeter=0;" edge="1" parent="1">
          <mxGeometry width="50" height="50" relative="1" as="geometry">
            <mxPoint x="593" y="510" as="sourcePoint" />
            <mxPoint x="570" y="461" as="targetPoint" />
          </mxGeometry>
        </mxCell>
        <mxCell id="gWGuc9RzG3EKUyZu4uWM-18" value="kreditszám" style="ellipse;whiteSpace=wrap;html=1;" vertex="1" parent="1">
          <mxGeometry x="650" y="510" width="100" height="30" as="geometry" />
        </mxCell>
        <mxCell id="gWGuc9RzG3EKUyZu4uWM-19" value="" style="endArrow=none;html=1;rounded=0;entryX=0.932;entryY=1.008;entryDx=0;entryDy=0;entryPerimeter=0;" edge="1" parent="1" target="gWGuc9RzG3EKUyZu4uWM-1">
          <mxGeometry width="50" height="50" relative="1" as="geometry">
            <mxPoint x="702" y="510" as="sourcePoint" />
            <mxPoint x="630" y="476" as="targetPoint" />
          </mxGeometry>
        </mxCell>
        <mxCell id="gWGuc9RzG3EKUyZu4uWM-21" value="" style="endArrow=none;html=1;rounded=0;entryX=0;entryY=0.5;entryDx=0;entryDy=0;exitX=1;exitY=0.5;exitDx=0;exitDy=0;" edge="1" parent="1" source="gWGuc9RzG3EKUyZu4uWM-13" target="gWGuc9RzG3EKUyZu4uWM-1">
          <mxGeometry width="50" height="50" relative="1" as="geometry">
            <mxPoint x="430" y="430" as="sourcePoint" />
            <mxPoint x="480" y="380" as="targetPoint" />
          </mxGeometry>
        </mxCell>
      </root>
    </mxGraphModel>
  </diagram>
</mxfile>
